<svg width="48" height="48" viewBox="0 0 48 48" fill="none" xmlns="http://www.w3.org/2000/svg">
<path fill-rule="evenodd" clip-rule="evenodd" d="M30.1284 15.4499V13.8666C30.1284 12.1177 28.7336 10.7 27.0131 10.7H20.7825C19.062 10.7 17.6672 12.1177 17.6672 13.8666V15.4499" stroke="#5BC0EB" stroke-width="2" stroke-linecap="round" stroke-linejoin="round"/>
<path fill-rule="evenodd" clip-rule="evenodd" d="M23.8978 7.53326C25.6183 7.53326 27.0131 6.1155 27.0131 4.36661C27.0131 2.61771 25.6183 1.19995 23.8978 1.19995C22.1772 1.19995 20.7825 2.61771 20.7825 4.36661C20.7825 6.1155 22.1772 7.53326 23.8978 7.53326Z" stroke="#5BC0EB" stroke-width="2" stroke-linecap="round" stroke-linejoin="round"/>
<path fill-rule="evenodd" clip-rule="evenodd" d="M15.216 46.7993V45.216C15.216 43.4671 13.8212 42.0493 12.1007 42.0493H5.87015C4.14964 42.0493 2.75488 43.4671 2.75488 45.216V46.7993" stroke="#5BC0EB" stroke-width="2" stroke-linecap="round" stroke-linejoin="round"/>
<path fill-rule="evenodd" clip-rule="evenodd" d="M8.98539 38.8828C10.7059 38.8828 12.1007 37.4651 12.1007 35.7162C12.1007 33.9673 10.7059 32.5496 8.98539 32.5496C7.26487 32.5496 5.87012 33.9673 5.87012 35.7162C5.87012 37.4651 7.26487 38.8828 8.98539 38.8828Z" stroke="#5BC0EB" stroke-width="2" stroke-linecap="round" stroke-linejoin="round"/>
<path fill-rule="evenodd" clip-rule="evenodd" d="M46.3339 46.7995V45.2162C46.3339 43.4673 44.9392 42.0496 43.2186 42.0496H36.9881C35.2676 42.0496 33.8728 43.4673 33.8728 45.2162V46.7995" stroke="#5BC0EB" stroke-width="2" stroke-linecap="round" stroke-linejoin="round"/>
<path fill-rule="evenodd" clip-rule="evenodd" d="M40.1033 38.8828C41.8238 38.8828 43.2186 37.4651 43.2186 35.7162C43.2186 33.9673 41.8238 32.5496 40.1033 32.5496C38.3828 32.5496 36.988 33.9673 36.988 35.7162C36.988 37.4651 38.3828 38.8828 40.1033 38.8828Z" stroke="#5BC0EB" stroke-width="2" stroke-linecap="round" stroke-linejoin="round"/>
<path d="M23.9375 22V28.0562M23.9375 28.0562L18 32.6875M23.9375 28.0562L29.8749 32.6875" stroke="#5BC0EB" stroke-width="2" stroke-linecap="round" stroke-dasharray="3 3"/>
</svg>
