<svg width="22" height="24" viewBox="0 0 22 24" fill="none" xmlns="http://www.w3.org/2000/svg">
<path d="M19.1675 0H2.8323C1.45478 0 0.333252 1.104 0.333252 2.472V18.696C0.333252 20.064 1.45478 21.168 2.8323 21.168H16.6563L16.0102 18.948L17.5706 20.376L19.0456 21.72L21.6666 24V2.472C21.6666 1.104 20.5451 0 19.1675 0ZM14.462 15.672C14.462 15.672 14.0232 15.156 13.6574 14.7C15.2544 14.256 15.8639 13.272 15.8639 13.272C15.3641 13.596 14.8887 13.824 14.462 13.98C13.8525 14.232 13.2673 14.4 12.6944 14.496C11.5241 14.712 10.4513 14.652 9.53706 14.484C8.8422 14.352 8.24487 14.16 7.74506 13.968C7.46468 13.86 7.15992 13.728 6.85516 13.56C6.81858 13.536 6.78201 13.524 6.74544 13.5C6.72106 13.488 6.70887 13.476 6.69668 13.464C6.47725 13.344 6.35535 13.26 6.35535 13.26C6.35535 13.26 6.94049 14.22 8.48868 14.676C8.12297 15.132 7.67192 15.672 7.67192 15.672C4.97782 15.588 3.95382 13.848 3.95382 13.848C3.95382 9.984 5.70925 6.852 5.70925 6.852C7.46468 5.556 9.13478 5.592 9.13478 5.592L9.25668 5.736C7.0624 6.36 6.05058 7.308 6.05058 7.308C6.05058 7.308 6.31877 7.164 6.76982 6.96C8.0742 6.396 9.11039 6.24 9.53706 6.204C9.6102 6.192 9.67116 6.18 9.7443 6.18C10.4879 6.084 11.3291 6.06 12.2068 6.156C13.3649 6.288 14.6083 6.624 15.8761 7.308C15.8761 7.308 14.9131 6.408 12.8407 5.784L13.0113 5.592C13.0113 5.592 14.6814 5.556 16.4369 6.852C16.4369 6.852 18.1923 9.984 18.1923 13.848C18.1923 13.848 17.1561 15.588 14.462 15.672ZM8.79344 10.068C8.09858 10.068 7.55001 10.668 7.55001 11.4C7.55001 12.132 8.11077 12.732 8.79344 12.732C9.4883 12.732 10.0369 12.132 10.0369 11.4C10.0491 10.668 9.4883 10.068 8.79344 10.068ZM13.243 10.068C12.5481 10.068 11.9995 10.668 11.9995 11.4C11.9995 12.132 12.5603 12.732 13.243 12.732C13.9378 12.732 14.4864 12.132 14.4864 11.4C14.4864 10.668 13.9378 10.068 13.243 10.068Z" fill="white"/>
</svg>
