<svg width="7" height="42" viewBox="0 0 7 42" fill="none" xmlns="http://www.w3.org/2000/svg">
<path d="M5.15895 0.459042C5.45772 -0.00545697 6.07646 -0.139812 6.54096 0.158951C7.00546 0.457714 7.13981 1.07646 6.84105 1.54096L5.15895 0.459042ZM6.87027 40.5074C7.14231 40.9881 6.97322 41.5982 6.49258 41.8703C6.01195 42.1423 5.40178 41.9732 5.12973 41.4926L6.87027 40.5074ZM6.84105 1.54096C6.30711 2.37111 5.78107 3.35381 5.2834 4.46983L3.45679 3.65529C3.98892 2.46199 4.56171 1.3876 5.15895 0.459042L6.84105 1.54096ZM3.17035 10.8848C2.68277 12.9683 2.32107 15.2273 2.13687 17.5966L0.142888 17.4416C0.335077 14.9695 0.712572 12.6101 1.22296 10.4291L3.17035 10.8848ZM2.12119 24.3902C2.28593 26.6016 2.62418 28.8488 3.16966 31.0885L1.22647 31.5618C0.65324 29.2082 0.299038 26.8519 0.126717 24.5387L2.12119 24.3902ZM5.34777 37.4893C5.80206 38.5073 6.30841 39.5148 6.87027 40.5074L5.12973 41.4926C4.53583 40.4433 4.00095 39.379 3.52137 38.3043L5.34777 37.4893Z" fill="#1B1B1C"/>
</svg>
