<svg width="178" height="44" viewBox="0 0 178 44" fill="none" xmlns="http://www.w3.org/2000/svg">
<rect width="178" height="44" fill="#090A0B"/>
<path d="M48.3226 29.0289V18.8598H44V16.0392H55.8919V18.8598H51.5693V29.0289H48.3226Z" fill="white"/>
<path d="M56.42 29.0289V19.2124H59.4779V20.1959C59.8051 19.8 60.1889 19.5031 60.6294 19.3052C61.0698 19.0948 61.5606 18.9897 62.1017 18.9897C62.6428 19.0021 63.0266 19.0825 63.2531 19.2309V21.8474C63.0518 21.7485 62.8253 21.6742 62.5736 21.6247C62.3219 21.5753 62.064 21.5505 61.7997 21.5505C61.3215 21.5505 60.8748 21.6619 60.4595 21.8845C60.0568 22.0948 59.7296 22.3979 59.4779 22.7938V29.0289H56.42Z" fill="white"/>
<path d="M67.5734 29.1959C66.8687 29.1959 66.2395 29.066 65.6858 28.8062C65.1447 28.5464 64.7168 28.1876 64.4022 27.7299C64.1002 27.2722 63.9492 26.7464 63.9492 26.1526C63.9492 25.2124 64.3078 24.4887 65.0251 23.9814C65.755 23.4619 66.768 23.2021 68.0642 23.2021C68.8444 23.2021 69.5994 23.2948 70.3293 23.4804V22.9979C70.3293 22.5031 70.1657 22.1381 69.8385 21.9031C69.5239 21.6557 69.052 21.532 68.4228 21.532C68.0327 21.532 67.5923 21.5938 67.1015 21.7175C66.6233 21.8412 66.057 22.0392 65.4027 22.3113L64.3078 20.1031C65.1258 19.7443 65.9123 19.4784 66.6674 19.3052C67.435 19.1196 68.2026 19.0268 68.9702 19.0268C70.3545 19.0268 71.4304 19.3546 72.198 20.0103C72.9657 20.6536 73.3495 21.5629 73.3495 22.7381V29.0289H70.3293V28.4351C69.9266 28.7072 69.4988 28.9052 69.0457 29.0289C68.6053 29.1402 68.1145 29.1959 67.5734 29.1959ZM66.8561 26.0969C66.8561 26.4062 66.9945 26.6474 67.2714 26.8206C67.5482 26.9938 67.9321 27.0804 68.4228 27.0804C68.7878 27.0804 69.1275 27.0433 69.4421 26.9691C69.7693 26.8948 70.0651 26.7773 70.3293 26.6165V25.3546C70.0399 25.2804 69.7442 25.2247 69.4421 25.1876C69.1401 25.1505 68.8318 25.132 68.5172 25.132C67.9887 25.132 67.5797 25.2186 67.2903 25.3918C67.0008 25.5526 66.8561 25.7876 66.8561 26.0969Z" fill="white"/>
<path d="M79.8106 29.1588C78.8668 29.1588 78.0047 28.9361 77.2245 28.4907C76.4569 28.033 75.8466 27.4268 75.3936 26.6722C74.9405 25.9052 74.714 25.0515 74.714 24.1113C74.714 23.1711 74.9405 22.3237 75.3936 21.5691C75.8592 20.8021 76.4821 20.1959 77.2623 19.7505C78.0551 19.3052 78.936 19.0825 79.9049 19.0825C80.3705 19.0825 80.8173 19.1381 81.2451 19.2495C81.673 19.3608 82.0757 19.5216 82.4532 19.732V16.0392L85.5111 15.5753V29.0289H82.491V28.3052C81.6982 28.8742 80.8047 29.1588 79.8106 29.1588ZM80.3391 26.5979C80.7669 26.5979 81.1571 26.5361 81.5094 26.4124C81.8618 26.2763 82.1764 26.0784 82.4532 25.8186V22.3856C82.1889 22.1381 81.8743 21.9526 81.5094 21.8289C81.1445 21.6928 80.7544 21.6247 80.3391 21.6247C79.8483 21.6247 79.4016 21.7361 78.9989 21.9588C78.6088 22.1691 78.2942 22.466 78.0551 22.8495C77.8286 23.2206 77.7153 23.6412 77.7153 24.1113C77.7153 24.5814 77.8286 25.0082 78.0551 25.3918C78.2942 25.7629 78.6088 26.0598 78.9989 26.2825C79.4016 26.4928 79.8483 26.5979 80.3391 26.5979Z" fill="white"/>
<path d="M92.3903 29.2144C91.371 29.2144 90.446 28.9918 89.6155 28.5464C88.7975 28.0887 88.1495 27.4763 87.6713 26.7093C87.1931 25.9423 86.954 25.0825 86.954 24.1299C86.954 23.1773 87.1805 22.3175 87.6335 21.5505C88.0991 20.7835 88.7283 20.1773 89.5211 19.732C90.3139 19.2742 91.1948 19.0454 92.1638 19.0454C93.1453 19.0454 94.0136 19.2804 94.7687 19.7505C95.5237 20.2082 96.1152 20.8392 96.543 21.6433C96.9835 22.4474 97.2037 23.3691 97.2037 24.4082V25.1505H90.0874C90.2258 25.4598 90.4083 25.732 90.6348 25.967C90.8739 26.2021 91.157 26.3876 91.4842 26.5237C91.8114 26.6474 92.1638 26.7093 92.5413 26.7093C92.9566 26.7093 93.3341 26.6474 93.6739 26.5237C94.0136 26.3876 94.3031 26.2021 94.5422 25.967L96.5619 27.7299C95.9327 28.2495 95.2846 28.6268 94.6177 28.8619C93.9633 29.0969 93.2208 29.2144 92.3903 29.2144ZM90.0308 23.0536H94.2024C94.1017 22.732 93.9444 22.4598 93.7305 22.2371C93.5291 22.0021 93.29 21.8227 93.0132 21.699C92.7363 21.5629 92.4343 21.4948 92.1071 21.4948C91.7674 21.4948 91.4591 21.5567 91.1822 21.6804C90.9054 21.8041 90.6663 21.9835 90.4649 22.2186C90.2762 22.4412 90.1314 22.7196 90.0308 23.0536Z" fill="white"/>
<path d="M103.654 29.2144C102.584 29.2144 101.527 29.0227 100.483 28.6392C99.4385 28.2557 98.5073 27.7237 97.6893 27.0433L99.5014 24.7237C100.307 25.367 101.049 25.8309 101.729 26.1155C102.408 26.3876 103.132 26.5237 103.9 26.5237C104.403 26.5237 104.831 26.4742 105.183 26.3753C105.535 26.2763 105.806 26.134 105.995 25.9485C106.184 25.7505 106.278 25.5216 106.278 25.2619C106.278 24.9031 106.139 24.6247 105.863 24.4268C105.586 24.2289 105.114 24.0742 104.447 23.9629L101.54 23.4619C100.47 23.2763 99.6461 22.8742 99.0672 22.2557C98.4884 21.6371 98.1989 20.8515 98.1989 19.899C98.1989 19.0577 98.4129 18.334 98.8407 17.7278C99.2812 17.1216 99.9041 16.6577 100.709 16.3361C101.527 16.0144 102.496 15.8536 103.616 15.8536C104.598 15.8536 105.586 16.0206 106.58 16.3546C107.574 16.6763 108.436 17.1278 109.166 17.7093L107.448 20.066C106.089 19.0392 104.736 18.5258 103.39 18.5258C102.949 18.5258 102.566 18.5753 102.238 18.6742C101.924 18.7608 101.678 18.8907 101.502 19.0639C101.339 19.2247 101.257 19.4227 101.257 19.6577C101.257 19.9794 101.376 20.2268 101.616 20.4C101.867 20.5732 102.27 20.7093 102.824 20.8082L105.561 21.2536C106.832 21.4515 107.794 21.866 108.449 22.4969C109.116 23.1278 109.449 23.9443 109.449 24.9464C109.449 25.8247 109.216 26.5856 108.751 27.2289C108.285 27.8598 107.618 28.3485 106.75 28.6948C105.882 29.0412 104.85 29.2144 103.654 29.2144Z" fill="white"/>
<path d="M110.781 29.0289V16.0392L113.839 15.3897V19.8804C114.594 19.3113 115.487 19.0268 116.519 19.0268C117.299 19.0268 117.985 19.1938 118.577 19.5278C119.181 19.8619 119.653 20.3258 119.992 20.9196C120.332 21.5134 120.502 22.2 120.502 22.9794V29.0289H117.444V23.3876C117.444 22.8433 117.281 22.4103 116.953 22.0887C116.626 21.767 116.186 21.6062 115.632 21.6062C115.242 21.6062 114.896 21.6742 114.594 21.8103C114.304 21.9464 114.053 22.1381 113.839 22.3856V29.0289H110.781Z" fill="white"/>
<path d="M125.51 29.1959C124.806 29.1959 124.176 29.066 123.623 28.8062C123.082 28.5464 122.654 28.1876 122.339 27.7299C122.037 27.2722 121.886 26.7464 121.886 26.1526C121.886 25.2124 122.245 24.4887 122.962 23.9814C123.692 23.4619 124.705 23.2021 126.001 23.2021C126.781 23.2021 127.536 23.2948 128.266 23.4804V22.9979C128.266 22.5031 128.103 22.1381 127.776 21.9031C127.461 21.6557 126.989 21.532 126.36 21.532C125.97 21.532 125.529 21.5938 125.039 21.7175C124.56 21.8412 123.994 22.0392 123.34 22.3113L122.245 20.1031C123.063 19.7443 123.849 19.4784 124.604 19.3052C125.372 19.1196 126.14 19.0268 126.907 19.0268C128.291 19.0268 129.367 19.3546 130.135 20.0103C130.903 20.6536 131.286 21.5629 131.286 22.7381V29.0289H128.266V28.4351C127.864 28.7072 127.436 28.9052 126.983 29.0289C126.542 29.1402 126.052 29.1959 125.51 29.1959ZM124.793 26.0969C124.793 26.4062 124.932 26.6474 125.208 26.8206C125.485 26.9938 125.869 27.0804 126.36 27.0804C126.725 27.0804 127.065 27.0433 127.379 26.9691C127.706 26.8948 128.002 26.7773 128.266 26.6165V25.3546C127.977 25.2804 127.681 25.2247 127.379 25.1876C127.077 25.1505 126.769 25.132 126.454 25.132C125.926 25.132 125.517 25.2186 125.227 25.3918C124.938 25.5526 124.793 25.7876 124.793 26.0969Z" fill="white"/>
<path d="M133.104 29.0289V19.2124H136.162V20.1959C136.489 19.8 136.873 19.5031 137.313 19.3052C137.754 19.0948 138.245 18.9897 138.786 18.9897C139.327 19.0021 139.711 19.0825 139.937 19.2309V21.8474C139.736 21.7485 139.509 21.6742 139.258 21.6247C139.006 21.5753 138.748 21.5505 138.484 21.5505C138.006 21.5505 137.559 21.6619 137.144 21.8845C136.741 22.0948 136.414 22.3979 136.162 22.7938V29.0289H133.104Z" fill="white"/>
<path d="M141.252 29.0289V19.2124H144.31V29.0289H141.252ZM142.781 18.3031C142.315 18.3031 141.919 18.1423 141.591 17.8206C141.264 17.499 141.101 17.1093 141.101 16.6515C141.101 16.1938 141.264 15.8041 141.591 15.4825C141.919 15.1608 142.315 15 142.781 15C143.246 15 143.643 15.1608 143.97 15.4825C144.297 15.8041 144.461 16.1938 144.461 16.6515C144.461 17.1093 144.297 17.499 143.97 17.8206C143.643 18.1423 143.246 18.3031 142.781 18.3031Z" fill="white"/>
<path d="M146.192 29.0289V19.2124H149.25V19.8804C150.005 19.3113 150.898 19.0268 151.93 19.0268C152.71 19.0268 153.396 19.1938 153.988 19.5278C154.592 19.8619 155.064 20.3258 155.403 20.9196C155.743 21.5134 155.913 22.2 155.913 22.9794V29.0289H152.855V23.3876C152.855 22.8433 152.692 22.4103 152.364 22.0887C152.037 21.767 151.597 21.6062 151.043 21.6062C150.653 21.6062 150.307 21.6742 150.005 21.8103C149.715 21.9464 149.464 22.1381 149.25 22.3856V29.0289H146.192Z" fill="white"/>
<path d="M162.828 33C162.023 33 161.255 32.9258 160.525 32.7773C159.808 32.6289 159.153 32.4186 158.562 32.1464L159.581 29.8082C160.122 30.0557 160.657 30.2412 161.186 30.3649C161.714 30.4887 162.243 30.5505 162.771 30.5505C163.489 30.5505 164.03 30.4082 164.395 30.1237C164.76 29.8392 164.942 29.4124 164.942 28.8433V28.2866C164.162 28.8062 163.3 29.066 162.356 29.066C161.412 29.066 160.557 28.8433 159.789 28.3979C159.021 27.9526 158.411 27.3526 157.958 26.5979C157.505 25.8309 157.278 24.9835 157.278 24.0557C157.278 23.1278 157.505 22.2866 157.958 21.532C158.424 20.7773 159.046 20.1835 159.827 19.7505C160.619 19.3052 161.5 19.0825 162.469 19.0825C162.922 19.0825 163.363 19.1381 163.791 19.2495C164.218 19.3608 164.615 19.5216 164.98 19.732V19.2124H168V28.8804C168 30.2041 167.553 31.2186 166.66 31.9237C165.779 32.6412 164.502 33 162.828 33ZM162.885 26.5423C163.3 26.5423 163.677 26.4804 164.017 26.3567C164.37 26.233 164.678 26.0536 164.942 25.8186V22.3485C164.678 22.1258 164.37 21.9526 164.017 21.8289C163.677 21.6928 163.306 21.6247 162.903 21.6247C162.413 21.6247 161.966 21.7361 161.563 21.9588C161.173 22.1691 160.859 22.4598 160.619 22.8309C160.393 23.1897 160.28 23.5979 160.28 24.0557C160.28 24.5258 160.393 24.9526 160.619 25.3361C160.846 25.7072 161.154 26.0041 161.544 26.2268C161.947 26.4371 162.394 26.5423 162.885 26.5423Z" fill="white"/>
<circle cx="22" cy="23.5" r="10.5" stroke="white" stroke-width="2"/>
<circle cx="13" cy="28.375" r="3" fill="white"/>
<circle cx="13" cy="28.375" r="4.25" fill="white" stroke="#0D0E0F" stroke-width="2.5"/>
<circle cx="22" cy="13" r="3" fill="white"/>
<circle cx="22" cy="13" r="4.25" fill="white" stroke="#0D0E0F" stroke-width="2.5"/>
<circle cx="31" cy="28.375" r="3" fill="white"/>
<circle cx="31" cy="28.375" r="4.25" fill="white" stroke="#0D0E0F" stroke-width="2.5"/>
</svg>
