<svg width="184" height="38" viewBox="0 0 184 38" fill="none" xmlns="http://www.w3.org/2000/svg">
<path d="M13.926 26.448C13.7379 26.448 13.5839 26.3891 13.4642 26.2713C13.3445 26.1535 13.2846 26.0021 13.2846 25.817V12.2902H8.61569C8.44466 12.2902 8.29929 12.2313 8.17958 12.1136C8.05986 11.9958 8 11.8528 8 11.6845V9.41325C8 9.22818 8.05986 9.07676 8.17958 8.95899C8.29929 8.84122 8.44466 8.78233 8.61569 8.78233H22.0582C22.2463 8.78233 22.4002 8.84122 22.5199 8.95899C22.6397 9.07676 22.6995 9.22818 22.6995 9.41325V11.6845C22.6995 11.8528 22.6397 11.9958 22.5199 12.1136C22.4002 12.2313 22.2463 12.2902 22.0582 12.2902H17.4149V25.817C17.4149 26.0021 17.355 26.1535 17.2353 26.2713C17.1156 26.3891 16.9617 26.448 16.7735 26.448H13.926Z" fill="white"/>
<path d="M23.9724 26.448C23.8013 26.448 23.656 26.3891 23.5363 26.2713C23.4165 26.1535 23.3567 26.0021 23.3567 25.817V13.9558C23.3567 13.7876 23.4165 13.6446 23.5363 13.5268C23.656 13.3922 23.8013 13.3249 23.9724 13.3249H26.4864C26.6574 13.3249 26.8028 13.3922 26.9225 13.5268C27.0594 13.6446 27.1278 13.7876 27.1278 13.9558V14.9653C27.5553 14.4437 28.0769 14.04 28.6926 13.7539C29.3254 13.4679 30.0523 13.3249 30.8732 13.3249H31.9763C32.1473 13.3249 32.2927 13.3838 32.4124 13.5016C32.5321 13.6193 32.592 13.7708 32.592 13.9558V16.1262C32.592 16.3113 32.5321 16.4627 32.4124 16.5804C32.2927 16.6982 32.1473 16.7571 31.9763 16.7571H29.7188C28.9663 16.7571 28.3762 16.9674 27.9487 17.388C27.5211 17.7918 27.3073 18.3722 27.3073 19.1293V25.817C27.3073 26.0021 27.2475 26.1535 27.1278 26.2713C27.008 26.3891 26.8541 26.448 26.666 26.448H23.9724Z" fill="white"/>
<path d="M38.2045 26.7003C37.2981 26.7003 36.4857 26.5321 35.7674 26.1956C35.0491 25.8423 34.4762 25.3712 34.0486 24.7823C33.6211 24.1935 33.4073 23.5373 33.4073 22.8139C33.4073 21.6193 33.8947 20.6772 34.8695 19.9874C35.8615 19.2976 37.1613 18.8265 38.7689 18.5741L42.1295 18.0946V17.6404C42.1295 16.9842 41.9756 16.4795 41.6677 16.1262C41.3599 15.7729 40.8212 15.5962 40.0516 15.5962C39.4872 15.5962 39.034 15.7056 38.6919 15.9243C38.3499 16.143 38.0848 16.429 37.8967 16.7823C37.7598 17.0011 37.5632 17.1104 37.3066 17.1104H34.8695C34.6814 17.1104 34.536 17.0599 34.4334 16.959C34.3308 16.8412 34.2881 16.7066 34.3052 16.5552C34.3052 16.2692 34.4163 15.9327 34.6387 15.5457C34.861 15.1588 35.203 14.7802 35.6648 14.4101C36.1266 14.0231 36.7166 13.7035 37.4349 13.4511C38.1532 13.1987 39.034 13.0726 40.0772 13.0726C41.1547 13.0726 42.0782 13.1987 42.8478 13.4511C43.6174 13.7035 44.2331 14.0568 44.6949 14.511C45.1566 14.9653 45.4987 15.4953 45.721 16.1009C45.9433 16.6898 46.0545 17.3291 46.0545 18.0189V25.817C46.0545 26.0021 45.9947 26.1535 45.8749 26.2713C45.7552 26.3891 45.6013 26.448 45.4132 26.448H42.8991C42.7281 26.448 42.5827 26.3891 42.463 26.2713C42.3433 26.1535 42.2834 26.0021 42.2834 25.817V24.8833C42.0611 25.2029 41.7618 25.5058 41.3856 25.7918C41.0093 26.061 40.5561 26.2797 40.0259 26.448C39.5128 26.6162 38.9057 26.7003 38.2045 26.7003ZM39.2307 24.0757C39.795 24.0757 40.2996 23.9579 40.7442 23.7224C41.1889 23.4869 41.5395 23.1251 41.796 22.6372C42.0526 22.1493 42.1808 21.5352 42.1808 20.795V20.3659L39.795 20.7445C38.8715 20.8959 38.196 21.123 37.7684 21.4259C37.3408 21.7287 37.1271 22.0988 37.1271 22.5363C37.1271 22.8559 37.2211 23.1335 37.4092 23.3691C37.6145 23.6046 37.8796 23.7813 38.2045 23.8991C38.5295 24.0168 38.8715 24.0757 39.2307 24.0757Z" fill="white"/>
<path d="M54.1117 26.7003C53.2566 26.7003 52.4956 26.5657 51.8286 26.2965C51.1616 26.0105 50.5972 25.6067 50.1354 25.0852C49.6737 24.5468 49.3231 23.9159 49.0836 23.1924C48.8442 22.4522 48.6988 21.6362 48.6475 20.7445C48.6304 20.4248 48.6219 20.1388 48.6219 19.8864C48.6219 19.6172 48.6304 19.3312 48.6475 19.0284C48.6817 18.1535 48.8186 17.3544 49.058 16.6309C49.3145 15.9075 49.6651 15.285 50.1098 14.7634C50.5715 14.225 51.1359 13.8128 51.8029 13.5268C52.487 13.224 53.2566 13.0726 54.1117 13.0726C55.0011 13.0726 55.7621 13.224 56.3949 13.5268C57.0277 13.8128 57.5493 14.1914 57.9598 14.6625V9.16088C57.9598 8.97581 58.0196 8.82439 58.1394 8.70662C58.2591 8.58885 58.413 8.52997 58.6011 8.52997H61.2434C61.4145 8.52997 61.5598 8.58885 61.6796 8.70662C61.7993 8.82439 61.8591 8.97581 61.8591 9.16088V25.817C61.8591 26.0021 61.7993 26.1535 61.6796 26.2713C61.5598 26.3891 61.4145 26.448 61.2434 26.448H58.7807C58.6097 26.448 58.4643 26.3891 58.3446 26.2713C58.2249 26.1535 58.165 26.0021 58.165 25.817V24.959C57.7375 25.4637 57.1987 25.8843 56.5488 26.2208C55.8989 26.5405 55.0866 26.7003 54.1117 26.7003ZM55.2918 23.6719C55.9246 23.6719 56.4291 23.5289 56.8054 23.2429C57.1987 22.9569 57.4809 22.5952 57.6519 22.1577C57.8401 21.7203 57.9427 21.2492 57.9598 20.7445C57.994 20.4248 58.0111 20.1052 58.0111 19.7855C58.0111 19.4658 57.994 19.1546 57.9598 18.8517C57.9427 18.3807 57.8401 17.9432 57.6519 17.5394C57.4638 17.1188 57.1731 16.7739 56.7797 16.5047C56.4035 16.2355 55.9075 16.1009 55.2918 16.1009C54.6419 16.1009 54.1288 16.244 53.7526 16.53C53.3763 16.7992 53.1027 17.1609 52.9317 17.6151C52.7778 18.0694 52.6837 18.5657 52.6495 19.1041C52.5982 19.6257 52.5982 20.1472 52.6495 20.6688C52.6837 21.2071 52.7778 21.7035 52.9317 22.1577C53.1027 22.612 53.3763 22.9821 53.7526 23.2681C54.1288 23.5373 54.6419 23.6719 55.2918 23.6719Z" fill="white"/>
<path d="M71.0706 26.7003C69.1038 26.7003 67.5389 26.1619 66.376 25.0852C65.2301 24.0084 64.623 22.4437 64.5546 20.3912C64.5546 20.2566 64.5546 20.0799 64.5546 19.8612C64.5546 19.6257 64.5546 19.4406 64.5546 19.306C64.623 18.0105 64.9223 16.9001 65.4524 15.9748C65.9826 15.0326 66.7266 14.3176 67.6843 13.8297C68.642 13.3249 69.7622 13.0726 71.0449 13.0726C72.4815 13.0726 73.6787 13.367 74.6364 13.9558C75.6113 14.5279 76.3381 15.3186 76.817 16.3281C77.313 17.3207 77.5609 18.4648 77.5609 19.7603V20.3407C77.5609 20.5089 77.4925 20.6519 77.3557 20.7697C77.236 20.8875 77.0906 20.9464 76.9196 20.9464H68.5309C68.5309 20.9632 68.5309 20.9968 68.5309 21.0473C68.5309 21.081 68.5309 21.1146 68.5309 21.1483C68.548 21.6866 68.6506 22.183 68.8387 22.6372C69.0439 23.0747 69.3261 23.428 69.6853 23.6972C70.0615 23.9664 70.5062 24.1009 71.0193 24.1009C71.4468 24.1009 71.7974 24.0421 72.0711 23.9243C72.3447 23.8065 72.567 23.6635 72.7381 23.4953C72.9262 23.327 73.063 23.184 73.1485 23.0662C73.3024 22.898 73.4222 22.7971 73.5077 22.7634C73.6103 22.7129 73.7642 22.6877 73.9694 22.6877H76.6374C76.8084 22.6877 76.9453 22.7382 77.0479 22.8391C77.1676 22.9232 77.2189 23.0494 77.2018 23.2177C77.1847 23.4869 77.0393 23.8233 76.7657 24.2271C76.5091 24.6141 76.1243 25.0011 75.6113 25.388C75.0982 25.7581 74.4569 26.0694 73.6872 26.3218C72.9347 26.5741 72.0625 26.7003 71.0706 26.7003ZM68.5309 18.6498H73.559V18.5994C73.559 17.9937 73.4564 17.4721 73.2511 17.0347C73.063 16.5804 72.7808 16.2271 72.4046 15.9748C72.0283 15.7224 71.5751 15.5962 71.0449 15.5962C70.5148 15.5962 70.0615 15.7224 69.6853 15.9748C69.309 16.2271 69.0183 16.5804 68.8131 17.0347C68.6249 17.4721 68.5309 17.9937 68.5309 18.5994V18.6498Z" fill="white"/>
<path d="M86.8722 26.7003C85.2304 26.7003 83.8536 26.4648 82.742 25.9937C81.6474 25.5226 80.8179 24.9085 80.2536 24.1514C79.6892 23.3943 79.3899 22.5868 79.3557 21.7287C79.3557 21.5941 79.407 21.4763 79.5096 21.3754C79.6122 21.2576 79.7405 21.1987 79.8944 21.1987H82.6394C82.8617 21.1987 83.0327 21.2492 83.1524 21.3502C83.2721 21.4343 83.3833 21.5436 83.4859 21.6782C83.6056 21.9642 83.7938 22.2419 84.0503 22.511C84.3239 22.7802 84.6916 23.0074 85.1534 23.1924C85.6152 23.3607 86.1881 23.4448 86.8722 23.4448C87.9838 23.4448 88.8133 23.2681 89.3606 22.9148C89.925 22.5615 90.2072 22.082 90.2072 21.4763C90.2072 21.0389 90.0532 20.6856 89.7454 20.4164C89.4547 20.1472 88.9843 19.9033 88.3344 19.6845C87.7017 19.4658 86.8551 19.2303 85.7947 18.9779C84.5121 18.7087 83.4175 18.3638 82.5111 17.9432C81.6218 17.5058 80.9462 16.9506 80.4845 16.2776C80.0398 15.5878 79.8175 14.7382 79.8175 13.7287C79.8175 12.7192 80.0996 11.8275 80.664 11.0536C81.2284 10.2629 82.0237 9.64879 83.0498 9.21136C84.076 8.7571 85.2988 8.52997 86.7183 8.52997C87.8641 8.52997 88.8732 8.68139 89.7454 8.98423C90.6347 9.28707 91.3701 9.68244 91.9516 10.1703C92.5502 10.6583 93.0034 11.1798 93.3112 11.735C93.6191 12.2902 93.7816 12.8286 93.7987 13.3502C93.7987 13.4848 93.7474 13.6109 93.6447 13.7287C93.5421 13.8297 93.4139 13.8801 93.2599 13.8801H90.3867C90.2157 13.8801 90.0618 13.8465 89.925 13.7792C89.7882 13.7119 89.677 13.5941 89.5915 13.4259C89.4889 12.9884 89.181 12.6099 88.6679 12.2902C88.172 11.9537 87.5221 11.7855 86.7183 11.7855C85.8803 11.7855 85.2133 11.9369 84.7173 12.2397C84.2384 12.5426 83.999 13.0053 83.999 13.6278C83.999 14.0315 84.1187 14.3764 84.3581 14.6625C84.6147 14.9317 85.0337 15.1756 85.6152 15.3943C86.2138 15.5962 87.0005 15.8233 87.9753 16.0757C89.4803 16.3785 90.7031 16.7403 91.6438 17.1609C92.5844 17.5815 93.277 18.1283 93.7217 18.8013C94.1664 19.4574 94.3887 20.2902 94.3887 21.2997C94.3887 22.4269 94.0638 23.3943 93.4139 24.2019C92.7811 25.0095 91.9003 25.632 90.7715 26.0694C89.6599 26.49 88.3601 26.7003 86.8722 26.7003Z" fill="white"/>
<path d="M97.5016 26.448C97.3135 26.448 97.1596 26.3891 97.0398 26.2713C96.9201 26.1535 96.8603 26.0021 96.8603 25.817V9.16088C96.8603 8.97581 96.9201 8.82439 97.0398 8.70662C97.1596 8.58885 97.3135 8.52997 97.5016 8.52997H100.272C100.443 8.52997 100.589 8.58885 100.708 8.70662C100.828 8.82439 100.888 8.97581 100.888 9.16088V14.8391C101.35 14.3007 101.914 13.8717 102.581 13.552C103.248 13.2324 104.052 13.0726 104.992 13.0726C106.001 13.0726 106.891 13.2997 107.66 13.7539C108.447 14.1914 109.063 14.8391 109.507 15.6972C109.952 16.5384 110.174 17.5647 110.174 18.776V25.817C110.174 26.0021 110.115 26.1535 109.995 26.2713C109.875 26.3891 109.721 26.448 109.533 26.448H106.737C106.566 26.448 106.421 26.3891 106.301 26.2713C106.181 26.1535 106.121 26.0021 106.121 25.817V18.9274C106.121 18.0358 105.899 17.346 105.454 16.858C105.01 16.3533 104.377 16.1009 103.556 16.1009C102.752 16.1009 102.102 16.3533 101.606 16.858C101.127 17.346 100.888 18.0358 100.888 18.9274V25.817C100.888 26.0021 100.828 26.1535 100.708 26.2713C100.589 26.3891 100.443 26.448 100.272 26.448H97.5016Z" fill="white"/>
<path d="M117.169 26.7003C116.263 26.7003 115.451 26.5321 114.732 26.1956C114.014 25.8423 113.441 25.3712 113.014 24.7823C112.586 24.1935 112.372 23.5373 112.372 22.8139C112.372 21.6193 112.86 20.6772 113.835 19.9874C114.826 19.2976 116.126 18.8265 117.734 18.5741L121.094 18.0946V17.6404C121.094 16.9842 120.941 16.4795 120.633 16.1262C120.325 15.7729 119.786 15.5962 119.017 15.5962C118.452 15.5962 117.999 15.7056 117.657 15.9243C117.315 16.143 117.05 16.429 116.862 16.7823C116.725 17.0011 116.528 17.1104 116.272 17.1104H113.835C113.646 17.1104 113.501 17.0599 113.398 16.959C113.296 16.8412 113.253 16.7066 113.27 16.5552C113.27 16.2692 113.381 15.9327 113.604 15.5457C113.826 15.1588 114.168 14.7802 114.63 14.4101C115.092 14.0231 115.682 13.7035 116.4 13.4511C117.118 13.1987 117.999 13.0726 119.042 13.0726C120.12 13.0726 121.043 13.1987 121.813 13.4511C122.582 13.7035 123.198 14.0568 123.66 14.511C124.122 14.9653 124.464 15.4953 124.686 16.1009C124.908 16.6898 125.019 17.3291 125.019 18.0189V25.817C125.019 26.0021 124.96 26.1535 124.84 26.2713C124.72 26.3891 124.566 26.448 124.378 26.448H121.864C121.693 26.448 121.548 26.3891 121.428 26.2713C121.308 26.1535 121.248 26.0021 121.248 25.817V24.8833C121.026 25.2029 120.727 25.5058 120.351 25.7918C119.974 26.061 119.521 26.2797 118.991 26.448C118.478 26.6162 117.871 26.7003 117.169 26.7003ZM118.196 24.0757C118.76 24.0757 119.265 23.9579 119.709 23.7224C120.154 23.4869 120.504 23.1251 120.761 22.6372C121.018 22.1493 121.146 21.5352 121.146 20.795V20.3659L118.76 20.7445C117.836 20.8959 117.161 21.123 116.733 21.4259C116.306 21.7287 116.092 22.0988 116.092 22.5363C116.092 22.8559 116.186 23.1335 116.374 23.3691C116.579 23.6046 116.845 23.7813 117.169 23.8991C117.494 24.0168 117.836 24.0757 118.196 24.0757Z" fill="white"/>
<path d="M128.741 26.448C128.57 26.448 128.425 26.3891 128.305 26.2713C128.185 26.1535 128.126 26.0021 128.126 25.817V13.9558C128.126 13.7876 128.185 13.6446 128.305 13.5268C128.425 13.3922 128.57 13.3249 128.741 13.3249H131.255C131.426 13.3249 131.572 13.3922 131.691 13.5268C131.828 13.6446 131.897 13.7876 131.897 13.9558V14.9653C132.324 14.4437 132.846 14.04 133.462 13.7539C134.094 13.4679 134.821 13.3249 135.642 13.3249H136.745C136.916 13.3249 137.062 13.3838 137.181 13.5016C137.301 13.6193 137.361 13.7708 137.361 13.9558V16.1262C137.361 16.3113 137.301 16.4627 137.181 16.5804C137.062 16.6982 136.916 16.7571 136.745 16.7571H134.488C133.735 16.7571 133.145 16.9674 132.718 17.388C132.29 17.7918 132.076 18.3722 132.076 19.1293V25.817C132.076 26.0021 132.016 26.1535 131.897 26.2713C131.777 26.3891 131.623 26.448 131.435 26.448H128.741Z" fill="white"/>
<path d="M139.89 26.448C139.719 26.448 139.573 26.3891 139.453 26.2713C139.334 26.1535 139.274 26.0021 139.274 25.817V13.9558C139.274 13.7708 139.334 13.6193 139.453 13.5016C139.573 13.3838 139.719 13.3249 139.89 13.3249H142.455C142.643 13.3249 142.797 13.3838 142.917 13.5016C143.036 13.6193 143.096 13.7708 143.096 13.9558V25.817C143.096 26.0021 143.036 26.1535 142.917 26.2713C142.797 26.3891 142.643 26.448 142.455 26.448H139.89ZM139.813 11.306C139.642 11.306 139.496 11.2471 139.376 11.1293C139.257 11.0116 139.197 10.8601 139.197 10.6751V8.65615C139.197 8.47108 139.257 8.31966 139.376 8.20189C139.496 8.0673 139.642 8 139.813 8H142.506C142.694 8 142.848 8.0673 142.968 8.20189C143.105 8.31966 143.173 8.47108 143.173 8.65615V10.6751C143.173 10.8601 143.105 11.0116 142.968 11.1293C142.848 11.2471 142.694 11.306 142.506 11.306H139.813Z" fill="white"/>
<path d="M147.581 26.448C147.41 26.448 147.264 26.3891 147.145 26.2713C147.025 26.1535 146.965 26.0021 146.965 25.817V13.9558C146.965 13.7708 147.025 13.6193 147.145 13.5016C147.264 13.3838 147.41 13.3249 147.581 13.3249H150.095C150.283 13.3249 150.437 13.3838 150.556 13.5016C150.676 13.6193 150.736 13.7708 150.736 13.9558V14.9401C151.181 14.4017 151.754 13.9558 152.455 13.6025C153.156 13.2492 154.011 13.0726 155.02 13.0726C156.029 13.0726 156.91 13.2997 157.662 13.7539C158.432 14.1914 159.031 14.8391 159.458 15.6972C159.903 16.5384 160.125 17.5647 160.125 18.776V25.817C160.125 26.0021 160.057 26.1535 159.92 26.2713C159.8 26.3891 159.655 26.448 159.484 26.448H156.765C156.576 26.448 156.423 26.3891 156.303 26.2713C156.183 26.1535 156.123 26.0021 156.123 25.817V18.9274C156.123 18.0358 155.901 17.346 155.456 16.858C155.029 16.3533 154.396 16.1009 153.558 16.1009C152.754 16.1009 152.113 16.3533 151.634 16.858C151.155 17.346 150.916 18.0358 150.916 18.9274V25.817C150.916 26.0021 150.856 26.1535 150.736 26.2713C150.616 26.3891 150.471 26.448 150.3 26.448H147.581Z" fill="white"/>
<path d="M169.458 32C168.193 32 167.141 31.8318 166.303 31.4953C165.465 31.1756 164.798 30.7802 164.302 30.3091C163.823 29.8549 163.481 29.4006 163.276 28.9464C163.071 28.4921 162.959 28.1388 162.942 27.8864C162.925 27.7014 162.985 27.5499 163.122 27.4322C163.259 27.3144 163.413 27.2555 163.584 27.2555H166.329C166.483 27.2555 166.611 27.2892 166.713 27.3565C166.833 27.4406 166.927 27.5752 166.996 27.7603C167.081 27.9621 167.201 28.1724 167.355 28.3912C167.509 28.6267 167.74 28.8202 168.047 28.9716C168.372 29.123 168.8 29.1987 169.33 29.1987C169.929 29.1987 170.425 29.1146 170.818 28.9464C171.211 28.7781 171.502 28.4921 171.69 28.0883C171.895 27.6845 171.998 27.1378 171.998 26.448V24.7571C171.588 25.1945 171.066 25.5563 170.433 25.8423C169.817 26.1283 169.056 26.2713 168.15 26.2713C167.261 26.2713 166.474 26.1367 165.79 25.8675C165.123 25.5815 164.567 25.1861 164.122 24.6814C163.678 24.1598 163.336 23.5373 163.096 22.8139C162.857 22.0904 162.72 21.2744 162.686 20.3659C162.669 19.9117 162.669 19.4658 162.686 19.0284C162.72 18.1535 162.857 17.3544 163.096 16.6309C163.336 15.9075 163.678 15.285 164.122 14.7634C164.567 14.225 165.123 13.8128 165.79 13.5268C166.474 13.224 167.261 13.0726 168.15 13.0726C169.091 13.0726 169.894 13.2492 170.561 13.6025C171.228 13.9558 171.776 14.3933 172.203 14.9148V13.9558C172.203 13.7876 172.263 13.6446 172.383 13.5268C172.503 13.3922 172.648 13.3249 172.819 13.3249H175.333C175.504 13.3249 175.649 13.3922 175.769 13.5268C175.906 13.6446 175.974 13.7876 175.974 13.9558L176 26.0946C176 27.3565 175.752 28.4248 175.256 29.2997C174.76 30.1746 174.025 30.8391 173.05 31.2934C172.092 31.7645 170.895 32 169.458 32ZM169.33 23.3186C169.946 23.3186 170.442 23.184 170.818 22.9148C171.211 22.6288 171.502 22.2755 171.69 21.8549C171.878 21.4175 171.981 20.9632 171.998 20.4921C172.015 20.307 172.024 20.0463 172.024 19.7098C172.024 19.3565 172.015 19.0873 171.998 18.9022C171.981 18.4311 171.878 17.9853 171.69 17.5647C171.502 17.1272 171.211 16.7739 170.818 16.5047C170.442 16.2355 169.946 16.1009 169.33 16.1009C168.68 16.1009 168.167 16.244 167.791 16.53C167.415 16.7992 167.141 17.1609 166.97 17.6151C166.799 18.0694 166.696 18.5657 166.662 19.1041C166.645 19.5079 166.645 19.9033 166.662 20.2902C166.696 20.8454 166.799 21.3502 166.97 21.8044C167.141 22.2587 167.415 22.6288 167.791 22.9148C168.167 23.184 168.68 23.3186 169.33 23.3186Z" fill="white"/>
</svg>
