<svg width="48" height="48" viewBox="0 0 48 48" fill="none" xmlns="http://www.w3.org/2000/svg">
<g clip-path="url(#clip0_52_414)">
<path fill-rule="evenodd" clip-rule="evenodd" d="M46.589 43.2001V40.9334C46.589 38.4298 44.4872 36.4001 41.8945 36.4001H32.5055C29.9128 36.4001 27.811 38.4298 27.811 40.9334V43.2001" stroke="#050D13" stroke-width="5" stroke-linecap="round" stroke-linejoin="round"/>
<path fill-rule="evenodd" clip-rule="evenodd" d="M37.2001 31.8667C39.7928 31.8667 41.8946 29.837 41.8946 27.3334C41.8946 24.8297 39.7928 22.8 37.2001 22.8C34.6074 22.8 32.5056 24.8297 32.5056 27.3334C32.5056 29.837 34.6074 31.8667 37.2001 31.8667Z" stroke="#050D13" stroke-width="5" stroke-linecap="round" stroke-linejoin="round"/>
<path fill-rule="evenodd" clip-rule="evenodd" d="M46.589 43.2001V40.9334C46.589 38.4298 44.4872 36.4001 41.8945 36.4001H32.5055C29.9128 36.4001 27.811 38.4298 27.811 40.9334V43.2001" fill="#050D13"/>
<path d="M46.589 43.2001V40.9334C46.589 38.4298 44.4872 36.4001 41.8945 36.4001H32.5055C29.9128 36.4001 27.811 38.4298 27.811 40.9334V43.2001H46.589Z" stroke="#5BC0EB" stroke-width="2" stroke-linecap="round" stroke-linejoin="round"/>
<path fill-rule="evenodd" clip-rule="evenodd" d="M37.2001 32.1841C39.7928 32.1841 41.8946 30.0834 41.8946 27.4921C41.8946 24.9007 39.7928 22.8 37.2001 22.8C34.6074 22.8 32.5056 24.9007 32.5056 27.4921C32.5056 30.0834 34.6074 32.1841 37.2001 32.1841Z" fill="#050D13" stroke="#5BC0EB" stroke-width="2" stroke-linecap="round" stroke-linejoin="round"/>
<path fill-rule="evenodd" clip-rule="evenodd" d="M20.1889 43.2001V40.9334C20.1889 38.4298 18.0871 36.4001 15.4944 36.4001H6.10539C3.51269 36.4001 1.41089 38.4298 1.41089 40.9334V43.2001" stroke="#050D13" stroke-width="5" stroke-linecap="round" stroke-linejoin="round"/>
<path fill-rule="evenodd" clip-rule="evenodd" d="M10.8 31.8667C13.3927 31.8667 15.4945 29.837 15.4945 27.3334C15.4945 24.8297 13.3927 22.8 10.8 22.8C8.20727 22.8 6.10547 24.8297 6.10547 27.3334C6.10547 29.837 8.20727 31.8667 10.8 31.8667Z" stroke="#050D13" stroke-width="5" stroke-linecap="round" stroke-linejoin="round"/>
<path fill-rule="evenodd" clip-rule="evenodd" d="M20.1889 43.2001V40.9334C20.1889 38.4298 18.0871 36.4001 15.4944 36.4001H6.10539C3.51269 36.4001 1.41089 38.4298 1.41089 40.9334V43.2001" fill="#050D13"/>
<path d="M20.1889 43.2001V40.9334C20.1889 38.4298 18.0871 36.4001 15.4944 36.4001H6.10539C3.51269 36.4001 1.41089 38.4298 1.41089 40.9334V43.2001H20.1889Z" stroke="#5BC0EB" stroke-width="2" stroke-linecap="round" stroke-linejoin="round"/>
<path fill-rule="evenodd" clip-rule="evenodd" d="M10.8 32.1841C13.3927 32.1841 15.4945 30.0834 15.4945 27.4921C15.4945 24.9007 13.3927 22.8 10.8 22.8C8.20727 22.8 6.10547 24.9007 6.10547 27.4921C6.10547 30.0834 8.20727 32.1841 10.8 32.1841Z" fill="#050D13" stroke="#5BC0EB" stroke-width="2" stroke-linecap="round" stroke-linejoin="round"/>
<path fill-rule="evenodd" clip-rule="evenodd" d="M34.4935 43.2V40.6667C34.4935 37.8685 32.1444 35.6001 29.2467 35.6001H18.7531C15.8554 35.6001 13.5063 37.8685 13.5063 40.6667V43.2" stroke="#050D13" stroke-width="6" stroke-linecap="round" stroke-linejoin="round"/>
<path fill-rule="evenodd" clip-rule="evenodd" d="M24 30.5332C26.8977 30.5332 29.2468 28.2648 29.2468 25.4665C29.2468 22.6683 26.8977 20.3999 24 20.3999C21.1022 20.3999 18.7532 22.6683 18.7532 25.4665C18.7532 28.2648 21.1022 30.5332 24 30.5332Z" stroke="#050D13" stroke-width="6" stroke-linecap="round" stroke-linejoin="round"/>
<path fill-rule="evenodd" clip-rule="evenodd" d="M34.4935 43.2V40.6667C34.4935 37.8685 32.1444 35.6001 29.2467 35.6001H18.7531C15.8554 35.6001 13.5063 37.8685 13.5063 40.6667V43.2" fill="#050D13"/>
<path d="M34.4935 43.2V40.6667C34.4935 37.8685 32.1444 35.6001 29.2467 35.6001H18.7531C15.8554 35.6001 13.5063 37.8685 13.5063 40.6667V43.2H34.4935Z" stroke="#5BC0EB" stroke-width="2" stroke-linecap="round" stroke-linejoin="round"/>
<path fill-rule="evenodd" clip-rule="evenodd" d="M24 30.8879C26.8977 30.8879 29.2468 28.5401 29.2468 25.6439C29.2468 22.7477 26.8977 20.3999 24 20.3999C21.1022 20.3999 18.7532 22.7477 18.7532 25.6439C18.7532 28.5401 21.1022 30.8879 24 30.8879Z" fill="#050D13" stroke="#5BC0EB" stroke-width="2" stroke-linecap="round" stroke-linejoin="round"/>
<path d="M9 13L22.8427 4L28.5056 11.4483L37 5.24138" stroke="#5BC0EB" stroke-width="2" stroke-linecap="round" stroke-linejoin="round"/>
<path d="M32.5 4L38 4.6L37.5 9.5" stroke="#5BC0EB" stroke-width="2" stroke-linecap="round"/>
</g>
<defs>
<clipPath id="clip0_52_414">
<rect width="48" height="48" fill="white"/>
</clipPath>
</defs>
</svg>
