<svg width="7" height="42" viewBox="0 0 7 42" fill="none" xmlns="http://www.w3.org/2000/svg">
<path d="M1.84105 0.459042C1.54228 -0.00545697 0.923538 -0.139812 0.45904 0.158951C-0.00545886 0.457714 -0.139814 1.07646 0.158949 1.54096L1.84105 0.459042ZM0.129734 40.5074C-0.142312 40.9881 0.0267833 41.5982 0.507418 41.8703C0.988053 42.1423 1.59822 41.9732 1.87027 41.4926L0.129734 40.5074ZM0.158949 1.54096C0.692895 2.37111 1.21893 3.35381 1.7166 4.46983L3.54321 3.65529C3.01108 2.46199 2.43829 1.3876 1.84105 0.459042L0.158949 1.54096ZM3.82965 10.8848C4.31723 12.9683 4.67893 15.2273 4.86313 17.5966L6.85711 17.4416C6.66492 14.9695 6.28743 12.6101 5.77704 10.4291L3.82965 10.8848ZM4.87881 24.3902C4.71407 26.6016 4.37582 28.8488 3.83034 31.0885L5.77353 31.5618C6.34676 29.2082 6.70096 26.8519 6.87328 24.5387L4.87881 24.3902ZM1.65223 37.4893C1.19794 38.5073 0.69159 39.5148 0.129734 40.5074L1.87027 41.4926C2.46417 40.4433 2.99905 39.379 3.47863 38.3043L1.65223 37.4893Z" fill="#1B1B1C"/>
</svg>
