<svg width="48" height="48" viewBox="0 0 48 48" fill="none" xmlns="http://www.w3.org/2000/svg">
<path fill-rule="evenodd" clip-rule="evenodd" d="M5 11C5 9.89543 5.89543 9 7 9H41C42.1046 9 43 9.89543 43 11V37C43 38.1046 42.1046 39 41 39H7C5.89543 39 5 38.1046 5 37V11Z" stroke="#B9FF74" stroke-width="2" stroke-linecap="round" stroke-linejoin="round"/>
<path d="M29.3333 23H37.9999" stroke="#B9FF74" stroke-width="2" stroke-linecap="round" stroke-linejoin="round"/>
<path d="M25.6667 23H25.0001" stroke="#B9FF74" stroke-width="2" stroke-linecap="round" stroke-linejoin="round"/>
<path d="M29.3333 27.6154H37.9999" stroke="#B9FF74" stroke-width="2" stroke-linecap="round" stroke-linejoin="round"/>
<path d="M25.6667 27.6154H25.0001" stroke="#B9FF74" stroke-width="2" stroke-linecap="round" stroke-linejoin="round"/>
<path d="M29.3333 32.2307H37.9999" stroke="#B9FF74" stroke-width="2" stroke-linecap="round" stroke-linejoin="round"/>
<path d="M25.6667 32.2307H25.0001" stroke="#B9FF74" stroke-width="2" stroke-linecap="round" stroke-linejoin="round"/>
<path d="M12 29.2C12 28.6477 11.5523 28.2 11 28.2C10.4477 28.2 10 28.6477 10 29.2H12ZM10 34C10 34.5522 10.4477 35 11 35C11.5523 35 12 34.5522 12 34H10ZM10 29.2V34H12V29.2H10Z" fill="#B9FF74"/>
<path d="M16 25.6C16 25.0477 15.5523 24.6 15 24.6C14.4477 24.6 14 25.0477 14 25.6L16 25.6ZM14 34C14 34.5523 14.4477 35 15 35C15.5523 35 16 34.5523 16 34L14 34ZM14 25.6L14 34L16 34L16 25.6L14 25.6Z" fill="#B9FF74"/>
<path d="M20 22C20 21.4477 19.5523 21 19 21C18.4477 21 18 21.4477 18 22L20 22ZM18 34C18 34.5523 18.4477 35 19 35C19.5523 35 20 34.5523 20 34L18 34ZM18 22L18 34L20 34L20 22L18 22Z" fill="#B9FF74"/>
<path d="M5 15H43" stroke="#B9FF74" stroke-width="2" stroke-linecap="round" stroke-linejoin="round"/>
<path d="M8 11C7.44772 11 7 11.4477 7 12C7 12.5523 7.44772 13 8 13V11ZM8.5 13C9.05228 13 9.5 12.5523 9.5 12C9.5 11.4477 9.05228 11 8.5 11V13ZM8 13H8.5V11H8V13Z" fill="#B9FF74"/>
<path d="M12.5 11C11.9477 11 11.5 11.4477 11.5 12C11.5 12.5523 11.9477 13 12.5 13V11ZM13 13C13.5523 13 14 12.5523 14 12C14 11.4477 13.5523 11 13 11V13ZM12.5 13H13V11H12.5V13Z" fill="#B9FF74"/>
<path d="M17 11C16.4477 11 16 11.4477 16 12C16 12.5523 16.4477 13 17 13V11ZM17.5 13C18.0523 13 18.5 12.5523 18.5 12C18.5 11.4477 18.0523 11 17.5 11V13ZM17 13H17.5V11H17V13Z" fill="#B9FF74"/>
</svg>
