<svg width="48" height="48" viewBox="0 0 48 48" fill="none" xmlns="http://www.w3.org/2000/svg">
<path fill-rule="evenodd" clip-rule="evenodd" d="M22.8001 40.8001C32.7412 40.8001 40.8001 32.7412 40.8001 22.8001C40.8001 12.8589 32.7412 4.80005 22.8001 4.80005C12.8589 4.80005 4.80005 12.8589 4.80005 22.8001C4.80005 32.7412 12.8589 40.8001 22.8001 40.8001Z" stroke="#5BC0EB" stroke-width="2" stroke-linecap="round" stroke-linejoin="round"/>
<path d="M43.2001 43.2003L36 36" stroke="#5BC0EB" stroke-width="2" stroke-linecap="round" stroke-linejoin="round"/>
<path fill-rule="evenodd" clip-rule="evenodd" d="M13.2001 22.8C13.2001 22.8 16.691 16.8 22.8001 16.8C28.9092 16.8 32.4001 22.8 32.4001 22.8C32.4001 22.8 28.9092 28.8001 22.8001 28.8001C16.691 28.8001 13.2001 22.8 13.2001 22.8Z" stroke="#5BC0EB" stroke-width="2" stroke-linecap="round" stroke-linejoin="round"/>
<path fill-rule="evenodd" clip-rule="evenodd" d="M22.8 25.8001C24.4569 25.8001 25.8001 24.4569 25.8001 22.8C25.8001 21.1432 24.4569 19.8 22.8 19.8C21.1432 19.8 19.8 21.1432 19.8 22.8C19.8 24.4569 21.1432 25.8001 22.8 25.8001Z" stroke="#5BC0EB" stroke-width="2" stroke-linecap="round" stroke-linejoin="round"/>
</svg>
