<svg width="49" height="48" viewBox="0 0 49 48" fill="none" xmlns="http://www.w3.org/2000/svg">
<g clip-path="url(#clip0_52_249)">
<path fill-rule="evenodd" clip-rule="evenodd" d="M25.2273 28.5454V25.6363C25.2273 22.423 22.6224 19.8181 19.4091 19.8181H7.77277C4.55948 19.8181 1.95459 22.423 1.95459 25.6363V28.5454" stroke="#B9FF74" stroke-width="2" stroke-linecap="round" stroke-linejoin="round"/>
<path fill-rule="evenodd" clip-rule="evenodd" d="M13.5909 14C16.8042 14 19.4091 11.3951 19.4091 8.18183C19.4091 4.96854 16.8042 2.36365 13.5909 2.36365C10.3776 2.36365 7.77271 4.96854 7.77271 8.18183C7.77271 11.3951 10.3776 14 13.5909 14Z" stroke="#B9FF74" stroke-width="2" stroke-linecap="round" stroke-linejoin="round"/>
<path d="M32.8636 27.4546V24.5455C32.8617 21.894 31.0673 19.5792 28.5 18.9164" stroke="#B9FF74" stroke-width="2" stroke-linecap="round" stroke-linejoin="round"/>
<path d="M23.7727 2.55273C26.3471 3.21189 28.1478 5.53163 28.1478 8.1891C28.1478 10.8466 26.3471 13.1663 23.7727 13.8255" stroke="#B9FF74" stroke-width="2" stroke-linecap="round" stroke-linejoin="round"/>
<path fill-rule="evenodd" clip-rule="evenodd" d="M35.5 47C42.1274 47 47.5 41.6274 47.5 35C47.5 28.3726 42.1274 23 35.5 23C28.8726 23 23.5 28.3726 23.5 35C23.5 41.6274 28.8726 47 35.5 47Z" fill="black" stroke="black" stroke-width="7" stroke-linecap="round" stroke-linejoin="round"/>
<path fill-rule="evenodd" clip-rule="evenodd" d="M35.5 47C42.1274 47 47.5 41.6274 47.5 35C47.5 28.3726 42.1274 23 35.5 23C28.8726 23 23.5 28.3726 23.5 35C23.5 41.6274 28.8726 47 35.5 47Z" fill="black" stroke="#B9FF74" stroke-width="2" stroke-linecap="round" stroke-linejoin="round"/>
<g clip-path="url(#clip1_52_249)">
<path d="M40.5 31.5H30.5L34.5 36.23V39.5L36.5 40.5V36.23L40.5 31.5Z" fill="black" stroke="#B9FF74" stroke-width="2" stroke-linecap="round" stroke-linejoin="round"/>
</g>
</g>
<defs>
<clipPath id="clip0_52_249">
<rect width="48" height="48" fill="white" transform="translate(0.5)"/>
</clipPath>
<clipPath id="clip1_52_249">
<rect width="12" height="12" fill="white" transform="translate(29.5 30)"/>
</clipPath>
</defs>
</svg>
