<svg width="88" height="13" viewBox="0 0 88 13" fill="none" xmlns="http://www.w3.org/2000/svg">
<path d="M0.450233 11.1647C-0.0111002 11.4683 -0.138946 12.0884 0.164682 12.5498C0.46831 13.0111 1.08843 13.1389 1.54977 12.8353L0.450233 11.1647ZM86.4988 12.8653C86.9767 13.1421 87.5885 12.9791 87.8653 12.5012C88.1421 12.0233 87.9791 11.4115 87.5012 11.1347L86.4988 12.8653ZM1.54977 12.8353C2.95659 11.9094 4.55304 10.9991 6.31895 10.1233L5.43039 8.33157C3.60135 9.23861 1.93325 10.1886 0.450233 11.1647L1.54977 12.8353ZM16.6084 6.07771C19.9513 5.04493 23.5721 4.16011 27.4 3.48124L27.0508 1.51197C23.1428 2.20502 19.4414 3.10917 16.0181 4.16684L16.6084 6.07771ZM38.433 2.17594C42.0452 1.95751 45.763 1.93578 49.5396 2.1484L49.6521 0.151557C45.7945 -0.0656178 41.9988 -0.0433383 38.3122 0.179587L38.433 2.17594ZM60.5614 3.44625C64.1496 4.09768 67.7491 4.98438 71.3225 6.13668L71.9363 4.2332C68.2748 3.05248 64.5893 2.14482 60.9187 1.47842L60.5614 3.44625ZM81.6023 10.262C83.2496 11.0628 84.8831 11.9295 86.4988 12.8653L87.5012 11.1347C85.843 10.1743 84.1668 9.28491 82.4767 8.46328L81.6023 10.262Z" fill="#1B1B1C"/>
</svg>
