<svg width="48" height="48" viewBox="0 0 48 48" fill="none" xmlns="http://www.w3.org/2000/svg">
<path d="M33.3361 36.2774C33.3361 36.2774 39.9543 31.1398 40.5298 30.7671C40.8878 30.5353 41.8682 30.4299 42.5441 31.1398C43.4073 32.0464 42.8318 33.2553 42.5441 33.487L34.4871 41.0424C33.0484 41.7173 28.4444 43.5306 27.5811 43.7623C26.6286 44.0181 25.2792 44.135 24.1282 43.7623L14.3447 39.5313L7.72649 40.438L6 32.5804L14.057 30.4649C15.5916 30.0619 18.6609 29.6287 21.5384 30.5353C23.5105 31.1567 29.0199 33.89 31.8974 34.9981C31.8974 34.9981 33.4081 35.673 33.0484 37.1841C32.7606 38.3929 31.6096 38.7174 31.0341 38.6247C29.5954 38.3929 24.4159 37.1841 22.6894 36.8114" stroke="#B9FF74" stroke-width="2" stroke-linecap="round"/>
<circle cx="27" cy="14" r="10" fill="black" stroke="#B9FF74" stroke-width="2"/>
<path d="M26.529 20V18.7626C25.8448 18.705 25.198 18.5468 24.5888 18.2878C23.9889 18.0192 23.4593 17.6643 23 17.223L23.9982 15.8273C24.7387 16.5468 25.5823 16.9832 26.529 17.1367V14.8201L25.7698 14.6619C24.8512 14.4892 24.1951 14.2014 23.8014 13.7986C23.4077 13.3957 23.2109 12.8201 23.2109 12.0719C23.2109 11.4964 23.3421 10.9976 23.6046 10.5755C23.8764 10.1535 24.2607 9.82254 24.7575 9.58273C25.2636 9.34293 25.8541 9.21343 26.529 9.19424V8H27.471V9.23741C28.0428 9.29496 28.6098 9.41966 29.1722 9.61151C29.7346 9.80336 30.2548 10.0576 30.7329 10.3741L29.9174 11.8849C29.4769 11.6163 29.0551 11.4005 28.652 11.2374C28.249 11.0743 27.8553 10.9592 27.471 10.8921V13.1799L28.2162 13.3094C29.2004 13.5012 29.908 13.7986 30.3392 14.2014C30.7797 14.5947 31 15.1463 31 15.8561C31 16.4221 30.8547 16.9209 30.5641 17.3525C30.283 17.7746 29.8799 18.1103 29.355 18.3597C28.8301 18.6091 28.2021 18.753 27.471 18.7914V20H26.529ZM26.529 13.0647V10.8201C26.0697 10.8393 25.6948 10.9448 25.4042 11.1367C25.123 11.3285 24.9824 11.5875 24.9824 11.9137C24.9824 12.1439 25.0246 12.3357 25.109 12.4892C25.2027 12.6331 25.348 12.7482 25.5448 12.8345C25.7417 12.9209 26.0088 12.9928 26.3462 13.0504L26.529 13.0647ZM27.471 17.2086C27.9772 17.1703 28.3802 17.0504 28.6801 16.8489C28.9895 16.6379 29.1441 16.3645 29.1441 16.0288C29.1441 15.8082 29.1019 15.6307 29.0176 15.4964C28.9426 15.3621 28.7973 15.2518 28.5817 15.1655C28.3661 15.0791 28.0615 15.0072 27.6678 14.9496L27.471 14.9065V17.2086Z" fill="#B9FF74"/>
</svg>
