<svg width="228" height="52" viewBox="0 0 228 52" fill="none" xmlns="http://www.w3.org/2000/svg">
<path d="M61.7867 35.7052V22.1464H56V18.3856H71.9198V22.1464H66.1331V35.7052H61.7867Z" fill="white"/>
<path d="M72.6268 35.7052V22.6165H76.7205V23.9278C77.1585 23.4 77.6723 23.0041 78.2619 22.7402C78.8515 22.4598 79.5085 22.3196 80.2329 22.3196C80.9573 22.3361 81.4711 22.4433 81.7744 22.6412V26.1299C81.5048 25.9979 81.2016 25.899 80.8647 25.833C80.5277 25.767 80.1824 25.734 79.8286 25.734C79.1885 25.734 78.5904 25.8825 78.0345 26.1794C77.4954 26.4598 77.0574 26.8639 76.7205 27.3918V35.7052H72.6268Z" fill="white"/>
<path d="M87.5579 35.9278C86.6145 35.9278 85.7722 35.7546 85.031 35.4082C84.3066 35.0619 83.7338 34.5835 83.3127 33.9732C82.9083 33.3629 82.7062 32.6619 82.7062 31.8701C82.7062 30.6165 83.1863 29.6515 84.1466 28.9753C85.1236 28.2825 86.4798 27.9361 88.215 27.9361C89.2594 27.9361 90.2702 28.0598 91.2473 28.3072V27.6639C91.2473 27.0041 91.0283 26.5175 90.5903 26.2041C90.1691 25.8742 89.5374 25.7093 88.6951 25.7093C88.1728 25.7093 87.5832 25.7918 86.9262 25.9567C86.286 26.1216 85.528 26.3856 84.6519 26.7485L83.1863 23.8041C84.2813 23.3258 85.3342 22.9711 86.345 22.7402C87.3726 22.4928 88.4003 22.3691 89.4279 22.3691C91.281 22.3691 92.7214 22.8062 93.749 23.6804C94.7766 24.5381 95.2904 25.7505 95.2904 27.3175V35.7052H91.2473V34.9134C90.7082 35.2763 90.1354 35.5402 89.529 35.7052C88.9394 35.8536 88.2823 35.9278 87.5579 35.9278ZM86.5977 31.7959C86.5977 32.2082 86.783 32.5299 87.1536 32.7608C87.5243 32.9918 88.0381 33.1072 88.6951 33.1072C89.1836 33.1072 89.6385 33.0577 90.0596 32.9588C90.4976 32.8598 90.8935 32.7031 91.2473 32.4887V30.8062C90.8598 30.7072 90.464 30.633 90.0596 30.5835C89.6553 30.534 89.2426 30.5093 88.8214 30.5093C88.1139 30.5093 87.5664 30.6247 87.1789 30.8557C86.7914 31.0701 86.5977 31.3835 86.5977 31.7959Z" fill="white"/>
<path d="M103.94 35.8783C102.676 35.8783 101.522 35.5814 100.478 34.9876C99.4504 34.3773 98.6333 33.5691 98.0269 32.5629C97.4204 31.5402 97.1172 30.4021 97.1172 29.1485C97.1172 27.8948 97.4204 26.7649 98.0269 25.7588C98.6502 24.7361 99.4841 23.9278 100.529 23.334C101.59 22.7402 102.769 22.4433 104.066 22.4433C104.69 22.4433 105.288 22.5175 105.86 22.666C106.433 22.8144 106.972 23.0289 107.478 23.3093V18.3856L111.571 17.767V35.7052H107.528V34.7402C106.467 35.499 105.271 35.8783 103.94 35.8783ZM104.647 32.4639C105.22 32.4639 105.743 32.3814 106.214 32.2165C106.686 32.0351 107.107 31.7711 107.478 31.4247V26.8474C107.124 26.5175 106.703 26.2701 106.214 26.1052C105.726 25.9237 105.203 25.833 104.647 25.833C103.99 25.833 103.392 25.9814 102.853 26.2784C102.331 26.5588 101.91 26.9546 101.59 27.466C101.287 27.9608 101.135 28.5216 101.135 29.1485C101.135 29.7753 101.287 30.3443 101.59 30.8557C101.91 31.3505 102.331 31.7464 102.853 32.0433C103.392 32.3237 103.99 32.4639 104.647 32.4639Z" fill="white"/>
<path d="M120.781 35.9526C119.416 35.9526 118.178 35.6557 117.066 35.0619C115.971 34.4515 115.103 33.635 114.463 32.6124C113.823 31.5897 113.503 30.4433 113.503 29.1732C113.503 27.9031 113.806 26.7567 114.413 25.734C115.036 24.7113 115.878 23.9031 116.94 23.3093C118.001 22.699 119.18 22.3938 120.477 22.3938C121.791 22.3938 122.954 22.7072 123.965 23.334C124.975 23.9443 125.767 24.7856 126.34 25.8577C126.929 26.9299 127.224 28.1588 127.224 29.5443V30.534H117.698C117.883 30.9464 118.127 31.3093 118.43 31.6227C118.751 31.9361 119.13 32.1835 119.568 32.3649C120.006 32.5299 120.477 32.6124 120.983 32.6124C121.539 32.6124 122.044 32.5299 122.499 32.3649C122.954 32.1835 123.341 31.9361 123.661 31.6227L126.365 33.9732C125.523 34.666 124.655 35.1691 123.762 35.4825C122.886 35.7959 121.892 35.9526 120.781 35.9526ZM117.622 27.7381H123.206C123.072 27.3093 122.861 26.9464 122.575 26.6495C122.305 26.3361 121.985 26.0969 121.614 25.932C121.244 25.7505 120.839 25.6598 120.401 25.6598C119.947 25.6598 119.534 25.7423 119.163 25.9072C118.793 26.0722 118.473 26.3113 118.203 26.6247C117.95 26.9216 117.757 27.2928 117.622 27.7381Z" fill="white"/>
<path d="M135.86 35.9526C134.428 35.9526 133.013 35.6969 131.614 35.1856C130.216 34.6742 128.969 33.9649 127.874 33.0577L130.3 29.9649C131.378 30.8227 132.372 31.4412 133.282 31.8206C134.192 32.1835 135.16 32.3649 136.188 32.3649C136.862 32.3649 137.435 32.299 137.906 32.167C138.378 32.035 138.74 31.8454 138.993 31.5979C139.246 31.334 139.372 31.0289 139.372 30.6825C139.372 30.2041 139.187 29.833 138.816 29.5691C138.445 29.3052 137.814 29.099 136.921 28.9505L133.029 28.2825C131.597 28.0351 130.494 27.499 129.719 26.6742C128.944 25.8495 128.557 24.8021 128.557 23.532C128.557 22.4103 128.843 21.4454 129.416 20.6371C130.005 19.8289 130.839 19.2103 131.918 18.7814C133.013 18.3526 134.31 18.1381 135.809 18.1381C137.123 18.1381 138.445 18.3608 139.776 18.8062C141.107 19.2351 142.261 19.8371 143.238 20.6124L140.939 23.7546C139.119 22.3856 137.308 21.701 135.506 21.701C134.916 21.701 134.402 21.767 133.964 21.899C133.543 22.0144 133.215 22.1876 132.979 22.4186C132.76 22.633 132.65 22.8969 132.65 23.2103C132.65 23.6392 132.81 23.9691 133.13 24.2C133.467 24.4309 134.006 24.6124 134.748 24.7443L138.412 25.3381C140.113 25.6021 141.402 26.1546 142.278 26.9959C143.171 27.8371 143.617 28.9258 143.617 30.2619C143.617 31.433 143.306 32.4474 142.682 33.3052C142.059 34.1464 141.166 34.7979 140.004 35.2598C138.841 35.7216 137.46 35.9526 135.86 35.9526Z" fill="white"/>
<path d="M145.4 35.7052V18.3856L149.494 17.5196V23.5072C150.505 22.7485 151.701 22.3691 153.082 22.3691C154.127 22.3691 155.045 22.5918 155.837 23.0371C156.645 23.4825 157.277 24.101 157.732 24.8928C158.187 25.6845 158.414 26.6 158.414 27.6392V35.7052H154.32V28.1835C154.32 27.4577 154.101 26.8804 153.663 26.4515C153.225 26.0227 152.636 25.8082 151.894 25.8082C151.372 25.8082 150.909 25.899 150.505 26.0804C150.117 26.2619 149.78 26.5175 149.494 26.8474V35.7052H145.4Z" fill="white"/>
<path d="M165.119 35.9278C164.175 35.9278 163.333 35.7546 162.592 35.4082C161.867 35.0619 161.295 34.5835 160.873 33.9732C160.469 33.3629 160.267 32.6619 160.267 31.8701C160.267 30.6165 160.747 29.6515 161.707 28.9753C162.684 28.2825 164.041 27.9361 165.776 27.9361C166.82 27.9361 167.831 28.0598 168.808 28.3072V27.6639C168.808 27.0041 168.589 26.5175 168.151 26.2041C167.73 25.8742 167.098 25.7093 166.256 25.7093C165.734 25.7093 165.144 25.7918 164.487 25.9567C163.847 26.1216 163.089 26.3856 162.213 26.7485L160.747 23.8041C161.842 23.3258 162.895 22.9711 163.906 22.7402C164.933 22.4928 165.961 22.3691 166.989 22.3691C168.842 22.3691 170.282 22.8062 171.31 23.6804C172.337 24.5381 172.851 25.7505 172.851 27.3175V35.7052H168.808V34.9134C168.269 35.2763 167.696 35.5402 167.09 35.7052C166.5 35.8536 165.843 35.9278 165.119 35.9278ZM164.159 31.7959C164.159 32.2082 164.344 32.5299 164.714 32.7608C165.085 32.9918 165.599 33.1072 166.256 33.1072C166.744 33.1072 167.199 33.0577 167.62 32.9588C168.058 32.8598 168.454 32.7031 168.808 32.4887V30.8062C168.421 30.7072 168.025 30.633 167.62 30.5835C167.216 30.534 166.803 30.5093 166.382 30.5093C165.675 30.5093 165.127 30.6247 164.74 30.8557C164.352 31.0701 164.159 31.3835 164.159 31.7959Z" fill="white"/>
<path d="M175.284 35.7052V22.6165H179.378V23.9278C179.816 23.4 180.33 23.0041 180.92 22.7402C181.509 22.4598 182.166 22.3196 182.891 22.3196C183.615 22.3361 184.129 22.4433 184.432 22.6412V26.1299C184.162 25.9979 183.859 25.899 183.522 25.833C183.185 25.767 182.84 25.734 182.486 25.734C181.846 25.734 181.248 25.8825 180.692 26.1794C180.153 26.4598 179.715 26.8639 179.378 27.3918V35.7052H175.284Z" fill="white"/>
<path d="M186.192 35.7052V22.6165H190.285V35.7052H186.192ZM188.239 21.4041C187.615 21.4041 187.085 21.1897 186.647 20.7608C186.209 20.332 185.99 19.8124 185.99 19.2021C185.99 18.5918 186.209 18.0722 186.647 17.6433C187.085 17.2144 187.615 17 188.239 17C188.862 17 189.393 17.2144 189.831 17.6433C190.269 18.0722 190.488 18.5918 190.488 19.2021C190.488 19.8124 190.269 20.332 189.831 20.7608C189.393 21.1897 188.862 21.4041 188.239 21.4041Z" fill="white"/>
<path d="M192.805 35.7052V22.6165H196.899V23.5072C197.91 22.7485 199.106 22.3691 200.487 22.3691C201.532 22.3691 202.45 22.5918 203.242 23.0371C204.05 23.4825 204.682 24.101 205.137 24.8928C205.592 25.6845 205.819 26.6 205.819 27.6392V35.7052H201.725V28.1835C201.725 27.4577 201.507 26.8804 201.068 26.4515C200.63 26.0227 200.041 25.8082 199.3 25.8082C198.777 25.8082 198.314 25.899 197.91 26.0804C197.522 26.2619 197.185 26.5175 196.899 26.8474V35.7052H192.805Z" fill="white"/>
<path d="M215.076 41C213.998 41 212.97 40.901 211.993 40.7031C211.033 40.5052 210.157 40.2247 209.365 39.8619L210.73 36.7443C211.454 37.0742 212.17 37.3216 212.878 37.4866C213.585 37.6515 214.293 37.734 215 37.734C215.961 37.734 216.685 37.5443 217.174 37.1649C217.662 36.7856 217.906 36.2165 217.906 35.4577V34.7155C216.862 35.4082 215.708 35.7546 214.444 35.7546C213.181 35.7546 212.035 35.4577 211.008 34.8639C209.98 34.2701 209.163 33.4701 208.557 32.4639C207.95 31.4412 207.647 30.3113 207.647 29.0742C207.647 27.8371 207.95 26.7155 208.557 25.7093C209.18 24.7031 210.014 23.9113 211.058 23.334C212.12 22.7402 213.299 22.4433 214.596 22.4433C215.202 22.4433 215.792 22.5175 216.365 22.666C216.938 22.8144 217.468 23.0289 217.957 23.3093V22.6165H222V35.5072C222 37.2722 221.402 38.6247 220.206 39.5649C219.027 40.5216 217.317 41 215.076 41ZM215.152 32.3897C215.708 32.3897 216.213 32.3072 216.668 32.1423C217.14 31.9773 217.553 31.7381 217.906 31.4247V26.7979C217.553 26.501 217.14 26.2701 216.668 26.1052C216.213 25.9237 215.716 25.833 215.177 25.833C214.52 25.833 213.922 25.9814 213.383 26.2784C212.861 26.5588 212.44 26.9464 212.12 27.4412C211.816 27.9196 211.665 28.4639 211.665 29.0742C211.665 29.701 211.816 30.2701 212.12 30.7814C212.423 31.2763 212.836 31.6722 213.358 31.9691C213.897 32.2495 214.495 32.3897 215.152 32.3897Z" fill="white"/>
<circle cx="26" cy="26.875" r="13.125" stroke="white" stroke-width="3"/>
<mask id="path-3-outside-1_52_473" maskUnits="userSpaceOnUse" x="7" y="25.2188" width="16" height="16" fill="black">
<rect fill="white" x="7" y="25.2188" width="16" height="16"/>
<path fill-rule="evenodd" clip-rule="evenodd" d="M14.75 36.7188C16.8211 36.7188 18.5 35.0398 18.5 32.9688C18.5 30.8977 16.8211 29.2188 14.75 29.2188C12.6789 29.2188 11 30.8977 11 32.9688C11 35.0398 12.6789 36.7188 14.75 36.7188Z"/>
</mask>
<path fill-rule="evenodd" clip-rule="evenodd" d="M14.75 36.7188C16.8211 36.7188 18.5 35.0398 18.5 32.9688C18.5 30.8977 16.8211 29.2188 14.75 29.2188C12.6789 29.2188 11 30.8977 11 32.9688C11 35.0398 12.6789 36.7188 14.75 36.7188Z" fill="white"/>
<path d="M14.5 32.9688C14.5 32.8307 14.6119 32.7188 14.75 32.7188V40.7188C19.0302 40.7188 22.5 37.249 22.5 32.9688H14.5ZM14.75 33.2188C14.6119 33.2188 14.5 33.1068 14.5 32.9688H22.5C22.5 28.6885 19.0302 25.2188 14.75 25.2188V33.2188ZM15 32.9688C15 33.1068 14.8881 33.2188 14.75 33.2188V25.2188C10.4698 25.2188 7 28.6885 7 32.9688H15ZM14.75 32.7188C14.8881 32.7188 15 32.8307 15 32.9688H7C7 37.249 10.4698 40.7188 14.75 40.7188V32.7188Z" fill="black" mask="url(#path-3-outside-1_52_473)"/>
<mask id="path-5-outside-2_52_473" maskUnits="userSpaceOnUse" x="18.25" y="6" width="16" height="16" fill="black">
<rect fill="white" x="18.25" y="6" width="16" height="16"/>
<path fill-rule="evenodd" clip-rule="evenodd" d="M26 17.5C28.0711 17.5 29.75 15.8211 29.75 13.75C29.75 11.6789 28.0711 10 26 10C23.9289 10 22.25 11.6789 22.25 13.75C22.25 15.8211 23.9289 17.5 26 17.5Z"/>
</mask>
<path fill-rule="evenodd" clip-rule="evenodd" d="M26 17.5C28.0711 17.5 29.75 15.8211 29.75 13.75C29.75 11.6789 28.0711 10 26 10C23.9289 10 22.25 11.6789 22.25 13.75C22.25 15.8211 23.9289 17.5 26 17.5Z" fill="white"/>
<path d="M25.75 13.75C25.75 13.6119 25.8619 13.5 26 13.5V21.5C30.2802 21.5 33.75 18.0302 33.75 13.75H25.75ZM26 14C25.8619 14 25.75 13.8881 25.75 13.75H33.75C33.75 9.46979 30.2802 6 26 6V14ZM26.25 13.75C26.25 13.8881 26.1381 14 26 14V6C21.7198 6 18.25 9.46979 18.25 13.75H26.25ZM26 13.5C26.1381 13.5 26.25 13.6119 26.25 13.75H18.25C18.25 18.0302 21.7198 21.5 26 21.5V13.5Z" fill="black" mask="url(#path-5-outside-2_52_473)"/>
<mask id="path-7-outside-3_52_473" maskUnits="userSpaceOnUse" x="29.5" y="25.2188" width="16" height="16" fill="black">
<rect fill="white" x="29.5" y="25.2188" width="16" height="16"/>
<path fill-rule="evenodd" clip-rule="evenodd" d="M37.25 36.7188C39.3211 36.7188 41 35.0398 41 32.9688C41 30.8977 39.3211 29.2188 37.25 29.2188C35.1789 29.2188 33.5 30.8977 33.5 32.9688C33.5 35.0398 35.1789 36.7188 37.25 36.7188Z"/>
</mask>
<path fill-rule="evenodd" clip-rule="evenodd" d="M37.25 36.7188C39.3211 36.7188 41 35.0398 41 32.9688C41 30.8977 39.3211 29.2188 37.25 29.2188C35.1789 29.2188 33.5 30.8977 33.5 32.9688C33.5 35.0398 35.1789 36.7188 37.25 36.7188Z" fill="white"/>
<path d="M37 32.9688C37 32.8307 37.1119 32.7188 37.25 32.7188V40.7188C41.5302 40.7188 45 37.249 45 32.9688H37ZM37.25 33.2188C37.1119 33.2188 37 33.1068 37 32.9688H45C45 28.6885 41.5302 25.2188 37.25 25.2188V33.2188ZM37.5 32.9688C37.5 33.1068 37.3881 33.2188 37.25 33.2188V25.2188C32.9698 25.2188 29.5 28.6885 29.5 32.9688H37.5ZM37.25 32.7188C37.3881 32.7188 37.5 32.8307 37.5 32.9688H29.5C29.5 37.249 32.9698 40.7188 37.25 40.7188V32.7188Z" fill="black" mask="url(#path-7-outside-3_52_473)"/>
</svg>
