<svg width="30" height="24" viewBox="0 0 30 24" fill="none" xmlns="http://www.w3.org/2000/svg">
<path fill-rule="evenodd" clip-rule="evenodd" d="M29.0527 11.7394C29.0527 9.90686 27.5554 8.41579 25.7144 8.41579C24.8724 8.41579 24.1041 8.73064 23.5164 9.24467C21.4247 7.90696 18.6595 7.0365 15.5973 6.88411L17.2076 1.81696L21.601 2.84696C21.6503 4.32308 22.8686 5.51002 24.3636 5.51002C25.8893 5.51002 27.1308 4.27434 27.1308 2.75501C27.1308 1.23568 25.889 0 24.3636 0C23.2553 0 22.3 0.653417 21.8582 1.59179L16.9213 0.435395C16.5943 0.359038 16.2621 0.546518 16.1619 0.865591L14.2557 6.86429C10.9953 6.92798 8.03757 7.80461 5.82095 9.2008C5.23971 8.71212 4.48941 8.41579 3.67156 8.41579C1.83058 8.41612 0.333252 9.90686 0.333252 11.7394C0.333252 12.9062 0.941582 13.932 1.85734 14.5246C1.81067 14.8223 1.78554 15.1238 1.78554 15.4289C1.78554 20.1549 7.54901 24 14.6342 24C21.7188 24 27.4829 20.1549 27.4829 15.4289C27.4829 15.1459 27.4614 14.8661 27.4212 14.5893C28.3954 14.0096 29.0527 12.951 29.0527 11.7394ZM24.3649 1.28083C25.1818 1.28083 25.8463 1.94269 25.8463 2.75597C25.8463 3.56925 25.1818 4.23079 24.3649 4.23079C23.5477 4.23079 22.8833 3.56925 22.8833 2.75597C22.8833 1.94269 23.5477 1.28083 24.3649 1.28083ZM3.67196 9.69563C2.54048 9.69563 1.61983 10.6126 1.61983 11.7391C1.61983 12.3077 1.85448 12.822 2.23273 13.1928C2.71606 12.0013 3.57308 10.9112 4.71826 9.98481C4.41116 9.80253 4.05413 9.69563 3.67196 9.69563ZM26.1966 15.4293C26.1966 19.4489 21.0088 22.7198 14.6337 22.7198C8.25768 22.7198 3.07088 19.4492 3.07088 15.4293C3.07088 15.2876 3.07871 15.1479 3.09112 15.0085C3.12995 14.5812 3.22917 14.1634 3.38027 13.7585C3.77222 12.709 4.52415 11.7459 5.5512 10.9249C5.87984 10.662 6.2359 10.4138 6.61708 10.1821C8.69761 8.91783 11.5232 8.13802 14.6337 8.13802C17.7893 8.13802 20.6531 8.93993 22.7404 10.2367C23.1226 10.4736 23.4777 10.7276 23.8047 10.9964C24.7909 11.8051 25.5119 12.748 25.8921 13.7731C26.0419 14.1793 26.1411 14.5975 26.1783 15.0257C26.1897 15.1599 26.1966 15.2938 26.1966 15.4293ZM24.5997 10.0261C25.7442 10.9641 26.5993 12.0653 27.0689 13.2691C27.4955 12.8948 27.7664 12.3483 27.767 11.7391C27.767 10.6122 26.8464 9.69563 25.7145 9.69563C25.3033 9.69563 24.9208 9.8178 24.5997 10.0261Z" fill="white"/>
<path d="M12.3704 13.8873C12.3704 12.8079 11.4912 11.9023 10.4067 11.9023C9.32256 11.9023 8.41333 12.8079 8.41333 13.8873C8.41333 14.9664 9.32289 15.8427 10.4067 15.8427C11.4912 15.8414 12.3704 14.9664 12.3704 13.8873Z" fill="white"/>
<path d="M19.0093 11.9023C17.9251 11.9023 17.0129 12.8076 17.0129 13.887C17.0129 14.9667 17.9251 15.8423 19.0093 15.8423C20.0938 15.8423 20.9736 14.9673 20.9736 13.887C20.973 12.8069 20.0938 11.9023 19.0093 11.9023Z" fill="white"/>
<path d="M18.455 18.6271C17.7275 19.3504 16.5027 19.7016 14.7081 19.7016C14.7025 19.7016 14.6976 19.7032 14.6924 19.7032C14.6868 19.7032 14.6823 19.7016 14.677 19.7016C12.8821 19.7016 11.6569 19.3504 10.9305 18.6271C10.6795 18.3769 10.2722 18.3769 10.0212 18.6271C9.76994 18.8776 9.76994 19.2828 10.0212 19.532C11.0006 20.5074 12.5237 20.9821 14.677 20.9821C14.6826 20.9821 14.6872 20.9802 14.6924 20.9802C14.6976 20.9802 14.7025 20.9821 14.7081 20.9821C16.861 20.9821 18.3845 20.5074 19.3648 19.5327C19.6165 19.2821 19.6165 18.8773 19.3655 18.6277C19.1139 18.3776 18.7066 18.3776 18.455 18.6271Z" fill="white"/>
</svg>
