<svg width="88" height="13" viewBox="0 0 88 13" fill="none" xmlns="http://www.w3.org/2000/svg">
<path d="M0.450233 1.83532C-0.0111002 1.53169 -0.138946 0.911567 0.164682 0.450233C0.46831 -0.0110998 1.08843 -0.138946 1.54977 0.164681L0.450233 1.83532ZM86.4988 0.13466C86.9767 -0.142137 87.5885 0.0209017 87.8653 0.498816C88.1421 0.97673 87.9791 1.58854 87.5012 1.86534L86.4988 0.13466ZM1.54977 0.164681C2.95659 1.09059 4.55304 2.00092 6.31895 2.87665L5.43039 4.66843C3.60135 3.76139 1.93325 2.81137 0.450233 1.83532L1.54977 0.164681ZM16.6084 6.92229C19.9513 7.95507 23.5721 8.83989 27.4 9.51876L27.0508 11.488C23.1428 10.795 19.4414 9.89083 16.0181 8.83316L16.6084 6.92229ZM38.433 10.8241C42.0452 11.0425 45.763 11.0642 49.5396 10.8516L49.6521 12.8484C45.7945 13.0656 41.9988 13.0433 38.3122 12.8204L38.433 10.8241ZM60.5614 9.55375C64.1496 8.90232 67.7491 8.01562 71.3225 6.86332L71.9363 8.7668C68.2748 9.94752 64.5893 10.8552 60.9187 11.5216L60.5614 9.55375ZM81.6023 2.73801C83.2496 1.93717 84.8831 1.07046 86.4988 0.13466L87.5012 1.86534C85.843 2.82574 84.1668 3.71509 82.4767 4.53672L81.6023 2.73801Z" fill="#1B1B1C"/>
</svg>
