<svg width="28" height="22" viewBox="0 0 28 22" fill="none" xmlns="http://www.w3.org/2000/svg">
<path d="M27.3334 2.93178C26.381 3.34203 25.2926 3.61555 24.2042 3.7523C25.2926 3.06854 26.245 1.97453 26.6531 0.743757C25.5647 1.42752 24.4763 1.83777 23.1157 2.11128C22.1634 1.01726 20.6667 0.333496 19.1701 0.333496C16.1769 0.333496 13.728 2.79503 13.728 5.80358C13.728 6.21384 13.728 6.62408 13.864 7.03434C9.37423 6.76084 5.29259 4.57281 2.5715 1.29076C2.16334 2.11127 1.89123 3.06853 1.89123 4.0258C1.89123 5.94033 2.84362 7.58136 4.34022 8.53862C3.38783 8.53862 2.5715 8.26512 1.89123 7.85486C1.89123 10.4531 3.79599 12.7779 6.24497 13.1882C5.83681 13.3249 5.2926 13.3249 4.74838 13.3249C4.34022 13.3249 4.06811 13.3249 3.65994 13.1882C4.34022 15.3762 6.38104 17.0172 8.83002 17.0172C6.92525 18.5215 4.61233 19.342 2.02729 19.342C1.61913 19.342 1.21097 19.342 0.666748 19.2053C3.11573 20.7096 5.97287 21.6668 9.10212 21.6668C19.1702 21.6668 24.6123 13.3249 24.6123 6.07708V5.39332C25.7008 4.98306 26.6531 4.02579 27.3334 2.93178Z" fill="white"/>
</svg>
